<?xml version="1.0" encoding="UTF-8"?>
<svg version="1.1" xmlns="http://www.w3.org/2000/svg" width="500" height="500">
<path d="M0 0 C165 0 330 0 500 0 C500 165 500 330 500 500 C335 500 170 500 0 500 C0 335 0 170 0 0 Z " fill="#FEFEFE" transform="translate(0,0)"/>
<path d="M0 0 C0 0.66 0 1.32 0 2 C0.89525391 2.38091797 0.89525391 2.38091797 1.80859375 2.76953125 C4.25440415 4.14284725 5.40668244 5.44000364 7.0625 7.6875 C7.54847656 8.33074219 8.03445312 8.97398437 8.53515625 9.63671875 C12.816548 16.54403077 13.42668082 21.88194853 13.34057617 29.89233398 C13.34101425 30.96624893 13.34145233 32.04016388 13.34190369 33.1466217 C13.33982137 36.67996695 13.31651593 40.21283186 13.29296875 43.74609375 C13.28737083 46.20231365 13.28310166 48.6585369 13.28010559 51.11476135 C13.26867232 57.56742666 13.23921789 64.01988815 13.20599365 70.47247314 C13.17526023 77.06169885 13.16159324 83.6509576 13.14648438 90.24023438 C13.114347 103.16024301 13.06374856 116.08011064 13 129 C-0.77830216 129.09283563 -14.55652943 129.16383411 -28.3350811 129.20724869 C-34.73359124 129.22808951 -41.13188678 129.25634364 -47.53027344 129.30175781 C-53.70945459 129.34533977 -59.8884298 129.36916346 -66.06775284 129.37950897 C-68.42078008 129.38687812 -70.77379653 129.40126824 -73.12673569 129.42292023 C-76.43222833 129.45211756 -79.73687884 129.45594908 -83.04248047 129.45410156 C-84.00705673 129.46848267 -84.971633 129.48286377 -85.96543884 129.49768066 C-97.15253788 129.43038317 -106.27931142 124.96587747 -114.125 117.0625 C-119.95968377 110.27772405 -122.82511091 101.13945346 -122.31640625 92.1796875 C-120.95214405 82.78143677 -117.14283303 75.34702826 -110 69 C-109.34 69 -108.68 69 -108 69 C-108 68.34 -108 67.68 -108 67 C-106.41925436 66.18247697 -104.83528777 65.37118003 -103.25 64.5625 C-102.36828125 64.11003906 -101.4865625 63.65757812 -100.578125 63.19140625 C-96.95050675 61.51500691 -93.85894512 60.8738641 -89.87402344 60.88647461 C-89.07349548 60.88655014 -88.27296753 60.88662567 -87.44818115 60.88670349 C-86.16672211 60.89444542 -86.16672211 60.89444542 -84.859375 60.90234375 C-83.97719299 60.9037587 -83.09501099 60.90517365 -82.18609619 60.90663147 C-79.37402935 60.91221999 -76.5620427 60.92477039 -73.75 60.9375 C-71.84114698 60.94251648 -69.93229272 60.94707913 -68.0234375 60.95117188 C-63.34892753 60.96218566 -58.67447735 60.97944242 -54 61 C-54.0314209 59.79053711 -54.0628418 58.58107422 -54.09521484 57.33496094 C-54.20481889 52.79519897 -54.27305714 48.25555079 -54.32958984 43.71484375 C-54.3595373 41.75956477 -54.40031105 39.80441749 -54.45263672 37.84960938 C-54.80156439 24.46720697 -54.48404625 14.84910862 -45.625 4.125 C-44.75875 3.42375 -43.8925 2.7225 -43 2 C-42.3915625 1.48824219 -41.783125 0.97648438 -41.15625 0.44921875 C-29.22276566 -9.16641575 -12.55477573 -8.36985049 0 0 Z " fill="#1D2D5D" transform="translate(174,181)"/>
<path d="M0 0 C0.81162598 0.00012085 1.62325195 0.0002417 2.45947266 0.00036621 C3.72428467 0.00804016 3.72428467 0.00804016 5.01464844 0.01586914 C6.18809814 0.01737976 6.18809814 0.01737976 7.38525391 0.0189209 C10.29819207 0.0241397 13.21110928 0.03810096 16.12402344 0.05102539 C22.64152344 0.07165039 29.15902344 0.09227539 35.87402344 0.11352539 C35.87402344 22.22352539 35.87402344 44.33352539 35.87402344 67.11352539 C57.98402344 67.11352539 80.09402344 67.11352539 102.87402344 67.11352539 C102.87402344 67.44352539 102.87402344 67.77352539 102.87402344 68.11352539 C89.09572128 68.20636102 75.31749401 68.2773595 61.53894234 68.32077408 C55.1404322 68.3416149 48.74213666 68.36986903 42.34375 68.4152832 C36.16456885 68.45886516 29.98559363 68.48268885 23.8062706 68.49303436 C21.45324336 68.50040351 19.10022691 68.51479363 16.74728775 68.53644562 C13.4417951 68.56564296 10.1371446 68.56947447 6.83154297 68.56762695 C5.86696671 68.58200806 4.90239044 68.59638916 3.90858459 68.61120605 C-7.27851444 68.54390856 -16.40528798 64.07940286 -24.25097656 56.17602539 C-30.08566033 49.39124944 -32.95108747 40.25297885 -32.44238281 31.29321289 C-31.07812061 21.89496216 -27.26880959 14.46055366 -20.12597656 8.11352539 C-19.46597656 8.11352539 -18.80597656 8.11352539 -18.12597656 8.11352539 C-18.12597656 7.45352539 -18.12597656 6.79352539 -18.12597656 6.11352539 C-16.54523092 5.29600236 -14.96126433 4.48470542 -13.37597656 3.67602539 C-12.05339844 2.99733398 -12.05339844 2.99733398 -10.70410156 2.30493164 C-7.07648331 0.6285323 -3.98492168 -0.01261051 0 0 Z " fill="#3FBBE9" transform="translate(84.1259765625,241.886474609375)"/>
<path d="M0 0 C0 0.66 0 1.32 0 2 C0.59683594 2.25394531 1.19367188 2.50789062 1.80859375 2.76953125 C4.25440415 4.14284725 5.40668244 5.44000364 7.0625 7.6875 C7.79146484 8.65236328 7.79146484 8.65236328 8.53515625 9.63671875 C12.61453729 16.21812015 13.42731914 21.24626859 13.29296875 28.87109375 C13.28994751 29.68968872 13.28692627 30.50828369 13.28381348 31.35168457 C13.26823544 34.38041981 13.22635224 37.4089739 13.1875 40.4375 C13.125625 47.223125 13.06375 54.00875 13 61 C-9.11 61 -31.22 61 -54 61 C-54.12375 54.3175 -54.2475 47.635 -54.375 40.75 C-54.42962402 38.66655273 -54.48424805 36.58310547 -54.54052734 34.43652344 C-54.72563224 22.22549265 -53.65160111 13.84141187 -45.625 4.125 C-44.325625 3.073125 -44.325625 3.073125 -43 2 C-42.3915625 1.48824219 -41.783125 0.97648438 -41.15625 0.44921875 C-29.22276566 -9.16641575 -12.55477573 -8.36985049 0 0 Z " fill="#3EBCEB" transform="translate(174,181)"/>
<path d="M0 0 C5.28 0 10.56 0 16 0 C18.60396247 8.6798749 20.75004559 17.02006438 22 26 C22.25394531 24.96101563 22.50789063 23.92203125 22.76953125 22.8515625 C24.66073858 15.16876314 26.63898422 7.55525051 29 0 C33.95 0 38.9 0 44 0 C44 12.87 44 25.74 44 39 C40.7 39 37.4 39 34 39 C33.505 28.605 33.505 28.605 33 18 C31.35 24.93 29.7 31.86 28 39 C24.04 39 20.08 39 16 39 C14.35 32.07 12.7 25.14 11 18 C10.67 24.93 10.34 31.86 10 39 C6.7 39 3.4 39 0 39 C0 26.13 0 13.26 0 0 Z " fill="#27325D" transform="translate(211,190)"/>
<path d="M0 0 C4.9190625 -0.12375 4.9190625 -0.12375 9.9375 -0.25 C10.95191162 -0.28641602 11.96632324 -0.32283203 13.01147461 -0.36035156 C19.93237013 -0.44363065 26.39481805 0.62938511 31.62475586 5.51904297 C36.32283831 11.00528233 36.52695459 15.22164811 36.46875 22.30078125 C35.74247079 28.03233465 33.37782066 32.23596163 29 36 C22.58748716 39.16406884 17.06039736 39.37590324 10 39.1875 C6.7 39.125625 3.4 39.06375 0 39 C0 26.13 0 13.26 0 0 Z " fill="#202B57" transform="translate(299,190)"/>
<path d="M0 0 C4.29 0 8.58 0 13 0 C13 4.29 13 8.58 13 13 C17.62 13 22.24 13 27 13 C27 17.62 27 22.24 27 27 C22.38 27 17.76 27 13 27 C13 31.29 13 35.58 13 40 C8.38 40 3.76 40 -1 40 C-1 35.71 -1 31.42 -1 27 C-5.29 27 -9.58 27 -14 27 C-14 22.38 -14 17.76 -14 13 C-9.38 13 -4.76 13 0 13 C0 8.71 0 4.42 0 0 Z " fill="#40B6E5" transform="translate(147,256)"/>
<path d="M0 0 C3.3 0 6.6 0 10 0 C10.33 4.95 10.66 9.9 11 15 C12.588125 13.2675 14.17625 11.535 15.8125 9.75 C16.3072583 9.21213867 16.8020166 8.67427734 17.31176758 8.12011719 C19.2141836 6.0358045 20.95098431 4.08169281 22.40625 1.65625 C24 0 24 0 27.13671875 -0.390625 C28.30847656 -0.34421875 29.48023438 -0.2978125 30.6875 -0.25 C32.45673828 -0.19585937 32.45673828 -0.19585937 34.26171875 -0.140625 C35.61716797 -0.07101562 35.61716797 -0.07101562 37 0 C36.67 0.66 36.34 1.32 36 2 C35.34 2 34.68 2 34 2 C34 2.66 34 3.32 34 4 C32.8739528 5.16016985 31.74185712 6.31500476 30.58203125 7.44140625 C28.71832313 9.27750388 26.90604296 11.14582652 25.125 13.0625 C24.50882812 13.71347656 23.89265625 14.36445313 23.2578125 15.03515625 C21.77203736 16.88651597 21.77203736 16.88651597 22.26928711 18.91577148 C23.04700743 21.13408034 23.94837848 22.5011696 25.43359375 24.3125 C25.91763672 24.91320312 26.40167969 25.51390625 26.90039062 26.1328125 C27.40763672 26.74898438 27.91488281 27.36515625 28.4375 28 C34.51173992 35.43530521 34.51173992 35.43530521 36 39 C31.43477258 39.82555117 27.53145951 40.11005552 23 39 C18.90939069 35.60625996 16.33448981 30.69310872 14 26 C14 25.34 14 24.68 14 24 C13.01 24.66 12.02 25.32 11 26 C10.41407366 29.11610554 10.41407366 29.11610554 10.3125 32.625 C10.24675781 33.81351562 10.18101562 35.00203125 10.11328125 36.2265625 C10.07589844 37.14179688 10.03851563 38.05703125 10 39 C6.7 39 3.4 39 0 39 C0 26.13 0 13.26 0 0 Z " fill="#1F2A5A" transform="translate(347,268)"/>
<path d="M0 0 C9.57 0 19.14 0 29 0 C29 2.64 29 5.28 29 8 C22.73 8 16.46 8 10 8 C10 10.64 10 13.28 10 16 C15.94 16 21.88 16 28 16 C28 18.31 28 20.62 28 23 C22.06 23 16.12 23 10 23 C10 25.64 10 28.28 10 31 C16.6 31 23.2 31 30 31 C30 33.64 30 36.28 30 39 C20.1 39 10.2 39 0 39 C0 26.13 0 13.26 0 0 Z " fill="#232D59" transform="translate(263,190)"/>
<path d="M0 0 C2.90298856 1.70392807 4.57363949 2.83699569 5.74609375 6.03515625 C6.24947448 8.0035485 6.63362098 10.00156896 7 12 C3.27388262 12.34691438 -0.28845784 12.54945907 -4 12 C-6.3125 9 -6.3125 9 -8 6 C-11.47387896 5.34864769 -13.20994431 5.57294287 -16.3125 7.25 C-19.70480389 10.76794477 -19.10917793 15.08220674 -19.0625 19.75 C-19.04896484 21.50570313 -19.04896484 21.50570313 -19.03515625 23.296875 C-19.02355469 24.18890625 -19.01195312 25.0809375 -19 26 C-18.34 26 -17.68 26 -17 26 C-16.5875 26.495 -16.175 26.99 -15.75 27.5 C-13.9985986 29.28028033 -13.9985986 29.28028033 -11 29.375 C-8.03803371 29.24927596 -8.03803371 29.24927596 -6.1875 27.6875 C-4.80544154 25.89523775 -4.80544154 25.89523775 -4 23 C-0.7 23 2.6 23 6 23 C6 28.67048846 5.37159142 29.55082252 1.765625 33.41796875 C-2.82546703 37.53166847 -7.83677148 38.54263927 -13.8046875 38.26953125 C-19.42207595 37.57985189 -23.09771666 35.34465725 -26.9375 31.3125 C-31.61120333 24.87692657 -31.10858715 17.51809457 -30 10 C-27.97347486 4.18438374 -24.39708761 0.93319979 -19 -2 C-12.20920009 -4.26359997 -6.25499167 -3.09401087 0 0 Z " fill="#2F3861" transform="translate(240,270)"/>
<path d="M0 0 C0 0.66 0 1.32 0 2 C0.61875 2.061875 1.2375 2.12375 1.875 2.1875 C4 3 4 3 5.25 5.3125 C6 8 6 8 6 12 C2.94555166 12.29945572 0.04497004 12.43720009 -3 12 C-5.6875 9.5 -5.6875 9.5 -8 7 C-11.04308291 6.24984805 -11.04308291 6.24984805 -14 7 C-17.06295906 9.27915284 -17.91315261 10.46422823 -18.53125 14.27734375 C-18.5209375 15.48519531 -18.510625 16.69304687 -18.5 17.9375 C-18.5103125 19.14277344 -18.520625 20.34804688 -18.53125 21.58984375 C-17.91387171 25.55286761 -16.86119864 27.2319326 -14 30 C-10.95720628 30.66680368 -10.95720628 30.66680368 -8 30 C-5.44050454 28.14657225 -5.02081202 27.06243607 -4 24 C-0.37 24 3.26 24 7 24 C5.93504084 29.3247958 4.77113306 32.92005024 0.30859375 36.26953125 C-4.9618289 39.28272238 -10.02773379 40.02619435 -16 39 C-21.63014254 37.2215899 -25.14390672 34.52352973 -28.0625 29.375 C-30.88455551 22.82275348 -31.34225315 15.86613411 -28.8125 9.125 C-22.38338678 -1.95967797 -11.61432709 -4.89024298 0 0 Z " fill="#2C355F" transform="translate(334,269)"/>
<path d="M0 0 C3.3 0 6.6 0 10 0 C10 9.9 10 19.8 10 30 C16.6 30 23.2 30 30 30 C30 32.97 30 35.94 30 39 C20.1 39 10.2 39 0 39 C0 26.13 0 13.26 0 0 Z " fill="#212B55" transform="translate(252,268)"/>
<path d="M0 0 C3.3 0 6.6 0 10 0 C10 12.87 10 25.74 10 39 C6.7 39 3.4 39 0 39 C0 26.13 0 13.26 0 0 Z " fill="#232E59" transform="translate(288,268)"/>
<path d="M0 0 C9.26923077 0 9.26923077 0 14 3 C15.40603618 5.81207235 15.24557505 8.24009466 15.3125 11.375 C15.34988281 12.51710937 15.38726562 13.65921875 15.42578125 14.8359375 C15 18 15 18 13.16796875 20.3515625 C8.63972625 23.7946586 6.19825183 23 0 23 C0 15.41 0 7.82 0 0 Z " fill="#F6F8FA" transform="translate(309,198)"/>
<path d="M0 0 C6.29079785 2.22028159 9.92515782 4.85031563 13 11 C13.85091573 18.19410571 14.04561742 24.46276592 10 30.6875 C6.56432882 34.89740693 3.39422737 37.1740408 -2 38 C-4.72323257 38.19085903 -7.26360396 38.14659265 -10 38 C-9.67 37.34 -9.34 36.68 -9 36 C-9.495 34.515 -9.495 34.515 -10 33 C-9.505 32.505 -9.505 32.505 -9 32 C-10.32 31.34 -11.64 30.68 -13 30 C-12.24074219 29.89042969 -11.48148437 29.78085938 -10.69921875 29.66796875 C-9.70535156 29.50941406 -8.71148437 29.35085937 -7.6875 29.1875 C-6.70136719 29.03667969 -5.71523438 28.88585937 -4.69921875 28.73046875 C-1.7575609 27.93439058 -0.66149863 27.53597159 1 25 C1.57947281 22.03756274 1.57947281 22.03756274 1.6875 18.8125 C1.75324219 17.72582031 1.81898438 16.63914063 1.88671875 15.51953125 C1.92410156 14.68808594 1.96148437 13.85664063 2 13 C2.33 13 2.66 13 3 13 C3.33 14.98 3.66 16.96 4 19 C5.32 18.34 6.64 17.68 8 17 C8.33 17.33 8.66 17.66 9 18 C9 15.03 9 12.06 9 9 C8.01 8.67 7.02 8.34 6 8 C6 7.01 6 6.02 6 5 C3.69 4.67 1.38 4.34 -1 4 C-0.67 2.68 -0.34 1.36 0 0 Z " fill="#1F2A59" transform="translate(322,191)"/>
<path d="M0 0 C2.90298856 1.70392807 4.57363949 2.83699569 5.74609375 6.03515625 C6.24947448 8.0035485 6.63362098 10.00156896 7 12 C3.27388262 12.34691438 -0.28845784 12.54945907 -4 12 C-6.3125 9 -6.3125 9 -8 6 C-11.45140888 5.35286084 -13.18396045 5.54664469 -16.25 7.25 C-18.0624173 9.0624173 -19.02478868 10.6432393 -20 13 C-20.66 10.69 -21.32 8.38 -22 6 C-23.65 6 -25.3 6 -27 6 C-25.49364535 1.78220697 -22.75987578 0.2252326 -19 -2 C-12.20920009 -4.26359997 -6.25499167 -3.09401087 0 0 Z " fill="#353E69" transform="translate(240,270)"/>
<path d="M0 0 C3.3 0 6.6 0 10 0 C10 9.9 10 19.8 10 30 C16.6 30 23.2 30 30 30 C30 30.33 30 30.66 30 31 C23.07 31 16.14 31 9 31 C9 30.01 9 29.02 9 28 C5.34683329 29.24976756 4.21934164 29.67098753 2 33 C2 23.1 2 13.2 2 3 C4.31 2.34 6.62 1.68 9 1 C6.36 1 3.72 1 1 1 C1 13.54 1 26.08 1 39 C0.67 39 0.34 39 0 39 C0 26.13 0 13.26 0 0 Z " fill="#323C66" transform="translate(252,268)"/>
<path d="M0 0 C3.0764695 3.82770042 6.11540563 7.68217729 9.125 11.5625 C9.56714844 12.12646484 10.00929688 12.69042969 10.46484375 13.27148438 C12.62962118 16.06738272 14.58496084 18.7485898 16 22 C11.43477258 22.82555117 7.53145951 23.11005552 3 22 C-1.09060931 18.60625996 -3.66551019 13.69310872 -6 9 C-6 8.34 -6 7.68 -6 7 C-6.99 7.66 -7.98 8.32 -9 9 C-9.58592634 12.11610554 -9.58592634 12.11610554 -9.6875 15.625 C-9.75324219 16.81351562 -9.81898438 18.00203125 -9.88671875 19.2265625 C-9.92410156 20.14179688 -9.96148437 21.05703125 -10 22 C-10.33 22 -10.66 22 -11 22 C-11.05383848 19.54137599 -11.09359038 17.0839245 -11.125 14.625 C-11.14175781 13.92632812 -11.15851563 13.22765625 -11.17578125 12.5078125 C-11.19344267 10.67102514 -11.10303261 8.83398037 -11 7 C-10.34 6.34 -9.68 5.68 -9 5 C-6.73725212 5.35355436 -5.04911148 5.97544426 -3 7 C-3 6.01 -3 5.02 -3 4 C-2.34 3.67 -1.68 3.34 -1 3 C-0.67 2.01 -0.34 1.02 0 0 Z " fill="#1D2957" transform="translate(367,285)"/>
<path d="M0 0 C3.3 0 6.6 0 10 0 C10.33 4.95 10.66 9.9 11 15 C12.588125 13.2675 14.17625 11.535 15.8125 9.75 C16.3072583 9.21213867 16.8020166 8.67427734 17.31176758 8.12011719 C19.2141836 6.0358045 20.95098431 4.08169281 22.40625 1.65625 C24 0 24 0 27.13671875 -0.390625 C28.30847656 -0.34421875 29.48023438 -0.2978125 30.6875 -0.25 C32.45673828 -0.19585937 32.45673828 -0.19585937 34.26171875 -0.140625 C35.61716797 -0.07101562 35.61716797 -0.07101562 37 0 C36.67 0.66 36.34 1.32 36 2 C35.34 2 34.68 2 34 2 C34 2.66 34 3.32 34 4 C32.87074855 5.16347119 31.73166566 6.31865823 30.55078125 7.4296875 C28.74647536 9.25671764 27.22119599 11.23944162 25.625 13.25 C23.02990034 16.25872908 22.23261354 16.93409283 18.25 18.0625 C15 18 15 18 12 17 C11.01 17 10.02 17 9 17 C9 11.72 9 6.44 9 1 C6.03 1 3.06 1 0 1 C0 0.67 0 0.34 0 0 Z " fill="#343D63" transform="translate(347,268)"/>
<path d="M0 0 C0 0.66 0 1.32 0 2 C0.61875 2.061875 1.2375 2.12375 1.875 2.1875 C4 3 4 3 5.25 5.3125 C6 8 6 8 6 12 C2.946225 12.29938971 0.04414262 12.43930751 -3 12 C-4.66666667 10.33333333 -6.33333333 8.66666667 -8 7 C-11.04414262 6.56069249 -13.946225 6.70061029 -17 7 C-17 6.34 -17 5.68 -17 5 C-17.66 4.67 -18.32 4.34 -19 4 C-18.67 2.68 -18.34 1.36 -18 0 C-12.10926427 -1.17814715 -5.81260782 -1.93753594 0 0 Z M-23 4 C-21.68 4 -20.36 4 -19 4 C-19.33 4.66 -19.66 5.32 -20 6 C-20.99 6.33 -21.98 6.66 -23 7 C-23 6.01 -23 5.02 -23 4 Z " fill="#242F5B" transform="translate(334,269)"/>
<path d="M0 0 C0.78688445 2.77723925 1.11949924 5.22610077 1.09765625 8.109375 C1.09443359 8.86347656 1.09121094 9.61757813 1.08789062 10.39453125 C1.07951172 11.17183594 1.07113281 11.94914062 1.0625 12.75 C1.05798828 13.54277344 1.05347656 14.33554687 1.04882812 15.15234375 C1.03708565 17.10159508 1.01915146 19.05080738 1 21 C0.01 21 -0.98 21 -2 21 C-2.99 21.66 -3.98 22.32 -5 23 C-8.02548065 19.93449976 -8.3865743 17.34824173 -8.41015625 13.10742188 C-8.39855469 12.39134766 -8.38695312 11.67527344 -8.375 10.9375 C-8.38660156 10.21755859 -8.39820313 9.49761719 -8.41015625 8.75585938 C-8.39332045 5.73383415 -8.37856012 3.55420329 -6.64453125 1.015625 C-4.37736767 -0.38452353 -2.60851538 -0.21150125 0 0 Z " fill="#1E2A59" transform="translate(219,275)"/>
<path d="M0 0 C0.66 0 1.32 0 2 0 C2.2475 0.639375 2.495 1.27875 2.75 1.9375 C3.81562433 4.18741541 3.81562433 4.18741541 6.125 4.75 C6.74375 4.8325 7.3625 4.915 8 5 C8 5.99 8 6.98 8 8 C9.32 8.33 10.64 8.66 12 9 C12 12.63 12 16.26 12 20 C11.34 19.34 10.68 18.68 10 18 C6.88667752 18.66868314 6.88667752 18.66868314 5.8125 21.0625 C5.544375 21.701875 5.27625 22.34125 5 23 C4.96261719 22.33613281 4.92523438 21.67226562 4.88671875 20.98828125 C4.6009385 13.81202081 4.6009385 13.81202081 1 8 C-2.63264764 6.98586351 -6.25650692 6.42583028 -10 6 C-10 5.01 -10 4.02 -10 3 C-6.95613276 2.91773332 -4.92824652 3.02391783 -2 4 C-1.34 4 -0.68 4 0 4 C0 2.68 0 1.36 0 0 Z " fill="#1E2A58" transform="translate(320,191)"/>
<path d="M0 0 C0.33 0.99 0.66 1.98 1 3 C1.99 2.67 2.98 2.34 4 2 C4 2.99 4 3.98 4 5 C4.99 5 5.98 5 7 5 C7.33 5.33 7.66 5.66 8 6 C9.91424457 5.8981629 9.91424457 5.8981629 12.0625 5.5625 C14.0115625 5.2840625 14.0115625 5.2840625 16 5 C16.33 6.98 16.66 8.96 17 11 C11.71240199 12.76253267 6.11517012 12.86333474 0.9375 10.75 C-1 9 -1 9 -1.9375 7.125 C-2.0186359 4.36637928 -1.16754401 2.47244615 0 0 Z " fill="#212B5A" transform="translate(312,295)"/>
<path d="M0 0 C4.29 0 8.58 0 13 0 C12.67 0.66 12.34 1.32 12 2 C11.34 2 10.68 2 10 2 C10 2.66 10 3.32 10 4 C7.75 6.4375 7.75 6.4375 5 9 C4.34 9.61875 3.68 10.2375 3 10.875 C1 12 1 12 -4 11 C-2.68 7.37 -1.36 3.74 0 0 Z " fill="#263159" transform="translate(371,268)"/>
<path d="M0 0 C0.33 0 0.66 0 1 0 C2.7610915 11.65766007 2.7610915 11.65766007 0.0625 16.25 C-0.618125 17.1575 -1.29875 18.065 -2 19 C-1.01 19 -0.02 19 1 19 C1 19.66 1 20.32 1 21 C0.01 21.66 -0.98 22.32 -2 23 C-2.66 23.66 -3.32 24.32 -4 25 C-6.68839385 25.26991906 -9.29141936 25.08737357 -12 25 C-11.67 24.34 -11.34 23.68 -11 23 C-11.33 22.01 -11.66 21.02 -12 20 C-11.67 19.67 -11.34 19.34 -11 19 C-12.32 18.34 -13.64 17.68 -15 17 C-14.24074219 16.89042969 -13.48148437 16.78085938 -12.69921875 16.66796875 C-11.70535156 16.50941406 -10.71148437 16.35085937 -9.6875 16.1875 C-8.70136719 16.03667969 -7.71523438 15.88585937 -6.69921875 15.73046875 C-3.7575609 14.93439058 -2.66149863 14.53597159 -1 12 C-0.42052719 9.03756274 -0.42052719 9.03756274 -0.3125 5.8125 C-0.24675781 4.72582031 -0.18101562 3.63914063 -0.11328125 2.51953125 C-0.07589844 1.68808594 -0.03851563 0.85664063 0 0 Z " fill="#26305F" transform="translate(324,204)"/>
<path d="M0 0 C0.33 0 0.66 0 1 0 C1.03738281 0.97582031 1.07476562 1.95164062 1.11328125 2.95703125 C1.21189453 4.86548828 1.21189453 4.86548828 1.3125 6.8125 C1.37050781 8.07707031 1.42851562 9.34164063 1.48828125 10.64453125 C1.7113494 13.96603693 1.7113494 13.96603693 3.54296875 15.94921875 C4.02378906 16.29597656 4.50460938 16.64273437 5 17 C6.98 15.35 8.96 13.7 11 12 C11 13.32 11 14.64 11 16 C11.66 16 12.32 16 13 16 C14.625 18 14.625 18 16 20 C13.69 19.67 11.38 19.34 9 19 C9 20.98 9 22.96 9 25 C9.99 25 10.98 25 12 25 C12 25.66 12 26.32 12 27 C7.06037362 25.31080134 4.51121357 23.11989516 1.3828125 18.99609375 C-1.37183448 13.02769196 -0.49619225 6.41899494 0 0 Z " fill="#374165" transform="translate(210,280)"/>
<path d="M0 0 C4.23830976 2.82553984 3.97715348 5.12180888 5 10 C1.37 10 -2.26 10 -6 10 C-7.98 6.535 -7.98 6.535 -10 3 C-8.68 3.33 -7.36 3.66 -6 4 C-5.67 3.34 -5.34 2.68 -5 2 C-4.34 2.33 -3.68 2.66 -3 3 C-3 2.34 -3 1.68 -3 1 C-2.01 0.67 -1.02 0.34 0 0 Z " fill="#1F2957" transform="translate(242,272)"/>
<path d="M0 0 C5.28 0 10.56 0 16 0 C16.33 1.98 16.66 3.96 17 6 C16.01 6.33 15.02 6.66 14 7 C14 5.35 14 3.7 14 2 C9.71 1.67 5.42 1.34 1 1 C1.33 12.55 1.66 24.1 2 36 C3.98 36.33 5.96 36.66 8 37 C8.66 36.34 9.32 35.68 10 35 C10 36.32 10 37.64 10 39 C6.7 39 3.4 39 0 39 C0 26.13 0 13.26 0 0 Z " fill="#323959" transform="translate(211,190)"/>
<path d="M0 0 C2.38672669 2.96283313 4.7353371 5.94270509 7 9 C6.67 9.66 6.34 10.32 6 11 C5.21625 10.175 4.4325 9.35 3.625 8.5 C1.36278736 5.77011494 1.36278736 5.77011494 -1 6 C-1 7.98 -1 9.96 -1 12 C-2.32 11.67 -3.64 11.34 -5 11 C-5.33 9.68 -5.66 8.36 -6 7 C-6.99 7.66 -7.98 8.32 -9 9 C-9.58592634 12.11610554 -9.58592634 12.11610554 -9.6875 15.625 C-9.75324219 16.81351562 -9.81898438 18.00203125 -9.88671875 19.2265625 C-9.92410156 20.14179688 -9.96148437 21.05703125 -10 22 C-10.33 22 -10.66 22 -11 22 C-11.05383848 19.54137599 -11.09359038 17.0839245 -11.125 14.625 C-11.14175781 13.92632812 -11.15851563 13.22765625 -11.17578125 12.5078125 C-11.19344267 10.67102514 -11.10303261 8.83398037 -11 7 C-10.34 6.34 -9.68 5.68 -9 5 C-6.73725212 5.35355436 -5.04911148 5.97544426 -3 7 C-3 6.01 -3 5.02 -3 4 C-2.34 3.67 -1.68 3.34 -1 3 C-0.67 2.01 -0.34 1.02 0 0 Z " fill="#353E62" transform="translate(367,285)"/>
<path d="M0 0 C6.93 0 13.86 0 21 0 C21 1.65 21 3.3 21 5 C18.04335481 6.4783226 15.25770263 6.06032783 12 6 C11.67 5.34 11.34 4.68 11 4 C11 4.99 11 5.98 11 7 C12.2375 6.95875 13.475 6.9175 14.75 6.875 C18.01637962 6.86341709 20.2146947 7.1431298 23 9 C20.18515955 10.40742022 18.43063887 9.66652164 15.375 9.0625 C14.37210937 8.86785156 13.36921875 8.67320312 12.3359375 8.47265625 C11.56507813 8.31667969 10.79421875 8.16070312 10 8 C10 6.35 10 4.7 10 3 C11.32 3 12.64 3 14 3 C14 2.34 14 1.68 14 1 C9.38 1.33 4.76 1.66 0 2 C0 1.34 0 0.68 0 0 Z " fill="#313B62" transform="translate(299,190)"/>
<path d="M0 0 C0 0.33 0 0.66 0 1 C-2.64 1 -5.28 1 -8 1 C-8 0.01 -8 -0.98 -8 -2 C-10.93832645 -1.88618103 -13.8751065 -1.75943449 -16.8125 -1.625 C-17.64587891 -1.5940625 -18.47925781 -1.563125 -19.33789062 -1.53125 C-20.14033203 -1.49257812 -20.94277344 -1.45390625 -21.76953125 -1.4140625 C-22.50792236 -1.3826416 -23.24631348 -1.3512207 -24.00708008 -1.31884766 C-26.31349588 -1.09165386 -26.31349588 -1.09165386 -29 1 C-31.26171875 1.6328125 -31.26171875 1.6328125 -33.6875 2.125 C-34.49574219 2.29257813 -35.30398437 2.46015625 -36.13671875 2.6328125 C-36.75160156 2.75398437 -37.36648437 2.87515625 -38 3 C-27.03929566 -6.93313831 -12.78189933 -5.84315398 0 0 Z " fill="#58B9DC" transform="translate(171,179)"/>
<path d="M0 0 C4.49513269 1.49837756 6.62921933 5.12319062 9 9 C9 9.33 9 9.66 9 10 C4.71 10 0.42 10 -4 10 C-4 9.34 -4 8.68 -4 8 C-3.34 8 -2.68 8 -2 8 C-2.33 6.68 -2.66 5.36 -3 4 C-2.34 3.67 -1.68 3.34 -1 3 C-0.67 2.01 -0.34 1.02 0 0 Z " fill="#27325D" transform="translate(374,297)"/>
<path d="M0 0 C0 0.33 0 0.66 0 1 C-3.96 1.66 -7.92 2.32 -12 3 C-12.33 3.99 -12.66 4.98 -13 6 C-12.01 6.33 -11.02 6.66 -10 7 C-10.57344937 9.86724686 -10.8614515 10.8614515 -13 13 C-13.66 12.34 -14.32 11.68 -15 11 C-16.98821313 10.60235737 -18.98944339 10.26224651 -21 10 C-20.42219268 7.1109634 -19.5113209 5.41397972 -17.21484375 3.5546875 C-11.43823523 -0.01112023 -6.69644501 -0.62910235 0 0 Z M-17 6 C-16.67 6.99 -16.34 7.98 -16 9 C-15.01 8.67 -14.02 8.34 -13 8 C-13 7.34 -13 6.68 -13 6 C-14.32 6 -15.64 6 -17 6 Z " fill="#2C355F" transform="translate(328,267)"/>
<path d="M0 0 C6.29079785 2.22028159 9.92515782 4.85031563 13 11 C13.12283119 13.33093612 13.17554232 15.66586039 13.1875 18 C13.20167969 19.258125 13.21585937 20.51625 13.23046875 21.8125 C13 25 13 25 11 27 C11.02320313 26.3709375 11.04640625 25.741875 11.0703125 25.09375 C11.19131188 19.3549224 10.88235469 14.44892148 9 9 C8.01 8.67 7.02 8.34 6 8 C6 7.01 6 6.02 6 5 C3.69 4.67 1.38 4.34 -1 4 C-0.67 2.68 -0.34 1.36 0 0 Z " fill="#2C345B" transform="translate(322,191)"/>
<path d="M0 0 C0.66 0.99 1.32 1.98 2 3 C2.99 3 3.98 3 5 3 C5.23562234 8.77274742 4.60916084 13.78167831 2 19 C0.10267135 16.43414951 -1.63780743 13.89195646 -3 11 C-2.375 8.375 -2.375 8.375 -1 6 C-0.62406934 4.0075675 -0.28020455 2.0081326 0 0 Z " fill="#26315E" transform="translate(308,285)"/>
<path d="M0 0 C0.99 0.33 1.98 0.66 3 1 C2.52949219 1.49628906 2.05898438 1.99257812 1.57421875 2.50390625 C-6.15055269 10.93238358 -8.48830375 18.65632824 -8 30 C-7.74216886 32.68500019 -7.38845983 35.3293387 -7 38 C-7.66 38 -8.32 38 -9 38 C-12.18403429 28.0113763 -10.49313247 16.18032785 -6.015625 6.9765625 C-4.31093818 3.7638835 -3.06541941 2.04361294 0 0 Z " fill="#D8F9FE" transform="translate(61,250)"/>
<path d="M0 0 C0.33 0 0.66 0 1 0 C1.33 11.55 1.66 23.1 2 35 C3.98 35.33 5.96 35.66 8 36 C8 32.37 8 28.74 8 25 C8.33 25 8.66 25 9 25 C9 29.29 9 33.58 9 38 C6.03 38 3.06 38 0 38 C0 25.46 0 12.92 0 0 Z " fill="#242B4D" transform="translate(347,269)"/>
<path d="M0 0 C0.89197207 2.46835037 1.12647657 3.64917051 0.22265625 6.15625 C-0.16019531 6.9296875 -0.54304688 7.703125 -0.9375 8.5 C-4.16834375 16.03120819 -3.76041869 24.07811589 -2 32 C-2.66 32 -3.32 32 -4 32 C-7.13167656 21.23486183 -6.72926852 11.90605281 -1.3125 1.875 C-0.879375 1.25625 -0.44625 0.6375 0 0 Z " fill="#60BFDF" transform="translate(58,256)"/>
<path d="M0 0 C3 3 3 3 3.07421875 5.04296875 C2.71614583 7.02864583 2.35807292 9.01432292 2 11 C5.96 11 9.92 11 14 11 C14 11.66 14 12.32 14 13 C9.38 13 4.76 13 0 13 C0 8.71 0 4.42 0 0 Z " fill="#133D6C" transform="translate(160,256)"/>
<path d="M0 0 C0.33 0 0.66 0 1 0 C1 12.21 1 24.42 1 37 C-1.97 37 -4.94 37 -8 37 C-8 36.67 -8 36.34 -8 36 C-6.824375 35.8453125 -6.824375 35.8453125 -5.625 35.6875 C-2.66954819 35.22404978 -2.66954819 35.22404978 -1 32 C-0.76034953 29.53615097 -0.62758 27.17459424 -0.5859375 24.70703125 C-0.56657135 24.00100266 -0.5472052 23.29497406 -0.5272522 22.56755066 C-0.46754776 20.31598939 -0.4211086 18.06437672 -0.375 15.8125 C-0.33681171 14.28448311 -0.29775948 12.75648755 -0.2578125 11.22851562 C-0.16185404 7.48585065 -0.07778989 3.7430849 0 0 Z " fill="#222B51" transform="translate(254,192)"/>
<path d="M0 0 C1.5625 1.0625 1.5625 1.0625 3 3 C2.6875 6.6875 2.6875 6.6875 2 10 C-1.75 11.125 -1.75 11.125 -4 10 C-4.25 7.25 -4.25 7.25 -4 4 C-2 1.625 -2 1.625 0 0 Z " fill="#1E2A56" transform="translate(239,208)"/>
<path d="M0 0 C1.98 0 3.96 0 6 0 C6 0.99 6 1.98 6 3 C5.01 3.66 4.02 4.32 3 5 C0.7226499 7.81509993 0.7226499 7.81509993 1 11 C-0.65 10.67 -2.3 10.34 -4 10 C-2.68 6.7 -1.36 3.4 0 0 Z " fill="#1E2A56" transform="translate(371,269)"/>
<path d="M0 0 C1.27875 0.103125 2.5575 0.20625 3.875 0.3125 C4.95394531 0.39951172 4.95394531 0.39951172 6.0546875 0.48828125 C8 1 8 1 10 4 C9.01 4 8.02 4 7 4 C7 4.66 7 5.32 7 6 C2.15507803 7.51403812 -1.2591011 6.36602172 -6 5 C-3.03312999 3.35173889 -0.34373475 2.55728913 3 2 C2.01 1.34 1.02 0.68 0 0 Z " fill="#1E2952" transform="translate(232,269)"/>
<path d="M0 0 C-0.33 2.31 -0.66 4.62 -1 7 C-1.7425 7.144375 -2.485 7.28875 -3.25 7.4375 C-5.52027739 7.90187492 -7.75759479 8.41863569 -10 9 C-10 8.34 -10 7.68 -10 7 C-9.34 7 -8.68 7 -8 7 C-7.9175 6.401875 -7.835 5.80375 -7.75 5.1875 C-6.40138854 1.25404992 -4.03742556 0 0 0 Z " fill="#1F2A58" transform="translate(245,294)"/>
<path d="M0 0 C0.33 0 0.66 0 1 0 C1.02578125 0.73605469 1.0515625 1.47210938 1.078125 2.23046875 C1.43701034 8.4226953 1.43701034 8.4226953 3.6875 14.125 C6.47010586 16.38116692 8.46326322 16.75885886 12 17 C10.8125 18.5 10.8125 18.5 9 20 C6.3125 20.1875 6.3125 20.1875 4 20 C4.33 19.01 4.66 18.02 5 17 C4.01 17 3.02 17 2 17 C1.67 16.34 1.34 15.68 1 15 C0.34 15 -0.32 15 -1 15 C-1.33 13.02 -1.66 11.04 -2 9 C-1.67 9 -1.34 9 -1 9 C-0.67 6.03 -0.34 3.06 0 0 Z " fill="#3E456B" transform="translate(314,283)"/>
<path d="M0 0 C3.30941204 0 5.11090151 0.40339294 8 2 C8.8125 4.625 8.8125 4.625 9 7 C6.03 7 3.06 7 0 7 C0 4.69 0 2.38 0 0 Z " fill="#212D5B" transform="translate(331,274)"/>
<path d="M0 0 C-2.98646769 1.99097846 -5.59687262 2.94124926 -9 4 C-9.33 5.65 -9.66 7.3 -10 9 C-12.31 8.67 -14.62 8.34 -17 8 C-15.60186993 4.62118566 -14.17112209 2.84982122 -11 1 C-7.29283962 0.13236672 -3.79891631 -0.11173283 0 0 Z " fill="#262E55" transform="translate(230,268)"/>
<path d="M0 0 C0.33 0 0.66 0 1 0 C1.01981934 0.94319092 1.03963867 1.88638184 1.06005859 2.8581543 C1.13834766 6.37143034 1.22504698 9.88429264 1.31738281 13.3972168 C1.35556704 14.91503978 1.39043808 16.43295001 1.421875 17.95092773 C1.46775628 20.13817431 1.52571029 22.32482582 1.5859375 24.51171875 C1.6173584 25.82615967 1.6487793 27.14060059 1.68115234 28.49487305 C1.97855432 31.76424534 2.59117427 34.06123896 4 37 C2.68 37 1.36 37 0 37 C0 24.79 0 12.58 0 0 Z " fill="#2B304F" transform="translate(263,192)"/>
<path d="M0 0 C4.29 0 8.58 0 13 0 C13 0.33 13 0.66 13 1 C10.36 1.33 7.72 1.66 5 2 C4.67 3.32 4.34 4.64 4 6 C3.01 5.67 2.02 5.34 1 5 C1 7.64 1 10.28 1 13 C0.67 13 0.34 13 0 13 C0 8.71 0 4.42 0 0 Z " fill="#183E6E" transform="translate(160,283)"/>
<path d="M0 0 C0.33 0 0.66 0 1 0 C1.82123644 5.51656651 2.49452726 10.35157579 0.875 15.75 C-3.85860476 19.45456025 -9.21426473 18.45148801 -15 18 C-15 17.67 -15 17.34 -15 17 C-14.24074219 16.89042969 -13.48148437 16.78085938 -12.69921875 16.66796875 C-11.70535156 16.50941406 -10.71148437 16.35085937 -9.6875 16.1875 C-8.70136719 16.03667969 -7.71523438 15.88585937 -6.69921875 15.73046875 C-3.7575609 14.93439058 -2.66149863 14.53597159 -1 12 C-0.42052719 9.03756274 -0.42052719 9.03756274 -0.3125 5.8125 C-0.24675781 4.72582031 -0.18101562 3.63914063 -0.11328125 2.51953125 C-0.07589844 1.68808594 -0.03851563 0.85664063 0 0 Z " fill="#444B6E" transform="translate(324,204)"/>
<path d="M0 0 C2.97 0 5.94 0 9 0 C8.75 2.875 8.75 2.875 8 6 C5.9375 7.375 5.9375 7.375 4 8 C3.67 5.69 3.34 3.38 3 1 C2.01 1.33 1.02 1.66 0 2 C0 1.34 0 0.68 0 0 Z " fill="#232B55" transform="translate(331,294)"/>
<path d="M0 0 C0.33 1.98 0.66 3.96 1 6 C-2.47325181 7.1577506 -5.36067448 7.06866652 -9 7 C-8.01 6.67 -7.02 6.34 -6 6 C-5.26676204 3.98491642 -5.26676204 3.98491642 -5 2 C-5.99 1.67 -6.98 1.34 -8 1 C-2.25 0 -2.25 0 0 0 Z " fill="#1C2752" transform="translate(328,300)"/>
<path d="M0 0 C4.29 0.66 8.58 1.32 13 2 C13 2.33 13 2.66 13 3 C5.25 3.125 5.25 3.125 3 2 C3 2.66 3 3.32 3 4 C4.32 4.33 5.64 4.66 7 5 C5.1875 6.0625 5.1875 6.0625 3 7 C2.01 6.67 1.02 6.34 0 6 C0 4.02 0 2.04 0 0 Z " fill="#1A2653" transform="translate(219,299)"/>
<path d="M0 0 C1.32 0 2.64 0 4 0 C4 2.31 4 4.62 4 7 C-3.92 7 -11.84 7 -20 7 C-20 6.67 -20 6.34 -20 6 C-19.40985107 5.97494385 -18.81970215 5.9498877 -18.21166992 5.92407227 C-15.53673186 5.80799948 -12.8621362 5.68532428 -10.1875 5.5625 C-9.25873047 5.52318359 -8.32996094 5.48386719 -7.37304688 5.44335938 C-6.48037109 5.40146484 -5.58769531 5.35957031 -4.66796875 5.31640625 C-3.84578857 5.27974854 -3.0236084 5.24309082 -2.17651367 5.20532227 C0.17905178 5.06572228 0.17905178 5.06572228 3 4 C3 3.01 3 2.02 3 1 C2.01 0.67 1.02 0.34 0 0 Z " fill="#232B4B" transform="translate(288,222)"/>
<path d="M0 0 C0.33 0 0.66 0 1 0 C1.66 3.96 2.32 7.92 3 12 C2.34 12 1.68 12 1 12 C1 16.95 1 21.9 1 27 C0.67 27 0.34 27 0 27 C0 18.09 0 9.18 0 0 Z " fill="#D1D7ED" transform="translate(221,202)"/>
<path d="M0 0 C0 0.66 0 1.32 0 2 C-1.65 2.33 -3.3 2.66 -5 3 C-5 3.66 -5 4.32 -5 5 C-5.99 5 -6.98 5 -8 5 C-8 5.66 -8 6.32 -8 7 C-10.87771795 8.91847864 -13.88626628 10.50079488 -17 12 C-15.38405168 9.95880212 -13.7143618 7.95927063 -12 6 C-11.34 6 -10.68 6 -10 6 C-10 5.34 -10 4.68 -10 4 C-8.71086513 3.32845067 -7.41859796 2.66291141 -6.125 2 C-5.40570313 1.62875 -4.68640625 1.2575 -3.9453125 0.875 C-2 0 -2 0 0 0 Z " fill="#5DB9DA" transform="translate(76,244)"/>
<path d="M0 0 C3.37276393 3.54184708 3.37739213 6.3429494 3.3125 11.125 C3.30863281 12.36507812 3.30476563 13.60515625 3.30078125 14.8828125 C3 18 3 18 1 20 C1.01160156 19.31292969 1.02320313 18.62585938 1.03515625 17.91796875 C1.04417969 17.01691406 1.05320312 16.11585938 1.0625 15.1875 C1.07410156 14.29417969 1.08570313 13.40085938 1.09765625 12.48046875 C1.11009967 9.86586209 1.11009967 9.86586209 0 7 C-0.03954234 4.66700175 -0.04401732 2.33291811 0 0 Z " fill="#434C6A" transform="translate(332,198)"/>
<path d="M0 0 C1.68762851 1.6454378 3.3540349 3.31288577 5 5 C5 5.33 5 5.66 5 6 C0.71 6 -3.58 6 -8 6 C-8 5.67 -8 5.34 -8 5 C-6.35 5 -4.7 5 -3 5 C-2.67 4.34 -2.34 3.68 -2 3 C-1.34 3.33 -0.68 3.66 0 4 C0 2.68 0 1.36 0 0 Z " fill="#353D5D" transform="translate(378,301)"/>
<path d="M0 0 C2.97 0.495 2.97 0.495 6 1 C6.33 1.99 6.66 2.98 7 4 C6.34 4 5.68 4 5 4 C5 4.66 5 5.32 5 6 C8.3 5.67 11.6 5.34 15 5 C15 5.66 15 6.32 15 7 C11.37 7 7.74 7 4 7 C2.02 3.535 2.02 3.535 0 0 Z " fill="#6D7491" transform="translate(232,275)"/>
<path d="M0 0 C0 0.33 0 0.66 0 1 C-3.96 1.66 -7.92 2.32 -12 3 C-12.33 3.99 -12.66 4.98 -13 6 C-14.32 6 -15.64 6 -17 6 C-16 3 -16 3 -13.5625 1.3125 C-8.93501394 -0.39236329 -4.87420366 -0.26008597 0 0 Z " fill="#5D6480" transform="translate(328,267)"/>
<path d="M0 0 C0.66 0 1.32 0 2 0 C2 0.66 2 1.32 2 2 C2.66 2 3.32 2 4 2 C6.09496432 5.63127149 8.15147768 9.23634193 10 13 C4.87109727 9.1638618 2.07330847 6.09796608 0 0 Z " fill="#5AB9DA" transform="translate(55,289)"/>
<path d="M0 0 C0.99 0.33 1.98 0.66 3 1 C2.34 6.28 1.68 11.56 1 17 C0.67 17 0.34 17 0 17 C-0.19436491 14.54203147 -0.3807742 12.08390706 -0.5625 9.625 C-0.61857422 8.92632812 -0.67464844 8.22765625 -0.73242188 7.5078125 C-1.11328125 2.2265625 -1.11328125 2.2265625 0 0 Z " fill="#2A3360" transform="translate(212,276)"/>
<path d="M0 0 C2.5625 2.25 2.5625 2.25 5 5 C4.8125 7.3125 4.8125 7.3125 4 9 C3.67 8.67 3.34 8.34 3 8 C2.34 8.99 1.68 9.98 1 11 C-0.125 7.25 -0.125 7.25 1 5 C0.72057545 3.32345271 0.39171753 1.65391846 0 0 Z " fill="#4EBAE2" transform="translate(178,186)"/>
<path d="M0 0 C0.66 0 1.32 0 2 0 C2 0.66 2 1.32 2 2 C3.32 2.33 4.64 2.66 6 3 C6.33 4.32 6.66 5.64 7 7 C6.01 7.66 5.02 8.32 4 9 C4 7.68 4 6.36 4 5 C3.34 5 2.68 5 2 5 C1.67 5.66 1.34 6.32 1 7 C0.34 6.01 -0.32 5.02 -1 4 C-0.34 3.67 0.32 3.34 1 3 C0.67 2.01 0.34 1.02 0 0 Z " fill="#354067" transform="translate(332,269)"/>
<path d="M0 0 C0.99 0.33 1.98 0.66 3 1 C-0.66666667 4.66666667 -4.33333333 8.33333333 -8 12 C-8.66 11.67 -9.32 11.34 -10 11 C-8.71520959 9.49410612 -7.42195918 7.99542625 -6.125 6.5 C-5.04605469 5.24703125 -5.04605469 5.24703125 -3.9453125 3.96875 C-3.30335938 3.3190625 -2.66140625 2.669375 -2 2 C-1.34 2 -0.68 2 0 2 C0 1.34 0 0.68 0 0 Z " fill="#CFD4E1" transform="translate(381,270)"/>
<path d="M0 0 C4.29 0 8.58 0 13 0 C12.67 0.66 12.34 1.32 12 2 C11.34 2 10.68 2 10 2 C10 2.66 10 3.32 10 4 C8.68 4 7.36 4 6 4 C6 3.01 6 2.02 6 1 C4.02 1 2.04 1 0 1 C0 0.67 0 0.34 0 0 Z " fill="#404568" transform="translate(371,268)"/>
<path d="M0 0 C1.37095624 3.69037278 0.60010967 5.70883835 -0.9375 9.25 C-1.31777344 10.14203125 -1.69804688 11.0340625 -2.08984375 11.953125 C-2.39019531 12.62859375 -2.69054688 13.3040625 -3 14 C-3.33 14 -3.66 14 -4 14 C-3.66009167 8.62007164 -3.31442207 4.46726453 0 0 Z " fill="#56B9DB" transform="translate(58,256)"/>
<path d="M0 0 C2.3129482 2.3129482 2.49580975 3.47904875 3.125 6.625 C3.29257812 7.44226563 3.46015625 8.25953125 3.6328125 9.1015625 C3.81457031 10.04128906 3.81457031 10.04128906 4 11 C-0.875 6.375 -0.875 6.375 -2 3 C-1.34 3 -0.68 3 0 3 C0 2.01 0 1.02 0 0 Z " fill="#2A355A" transform="translate(366,294)"/>
<path d="M0 0 C0.33 0 0.66 0 1 0 C1.2919519 5.54708616 0.19088986 10.61972975 -1 16 C-1.33 16 -1.66 16 -2 16 C-2.05449838 14.27119018 -2.09301688 12.54187288 -2.125 10.8125 C-2.14820313 9.84957031 -2.17140625 8.88664062 -2.1953125 7.89453125 C-1.9913544 4.87187222 -1.26874632 2.73230015 0 0 Z " fill="#505976" transform="translate(306,277)"/>
<path d="M0 0 C0.53625 0.474375 1.0725 0.94875 1.625 1.4375 C4.42842836 3.28186076 6.69620258 3.62456847 10 4 C8.8125 5.5 8.8125 5.5 7 7 C4.3125 7.1875 4.3125 7.1875 2 7 C2.33 6.01 2.66 5.02 3 4 C2.01 4 1.02 4 0 4 C0 2.68 0 1.36 0 0 Z " fill="#485175" transform="translate(316,296)"/>
<path d="M0 0 C0.99 0.66 1.98 1.32 3 2 C3 3.32 3 4.64 3 6 C0.36 6 -2.28 6 -5 6 C-4.34 4.68 -3.68 3.36 -3 2 C-2.67 2.66 -2.34 3.32 -2 4 C-1.34 3.67 -0.68 3.34 0 3 C0 2.01 0 1.02 0 0 Z " fill="#1C2449" transform="translate(337,275)"/>
<path d="M0 0 C1.485 0.99 1.485 0.99 3 2 C3.6875 5.625 3.6875 5.625 4 9 C3.34 9 2.68 9 2 9 C0.4375 6.1875 0.4375 6.1875 -1 3 C-0.67 2.01 -0.34 1.02 0 0 Z " fill="#3D4465" transform="translate(242,272)"/>
<path d="M0 0 C1.98 0 3.96 0 6 0 C6.66 1.32 7.32 2.64 8 4 C2.25 4.125 2.25 4.125 0 3 C0 2.01 0 1.02 0 0 Z " fill="#1B2755" transform="translate(230,224)"/>
<path d="M0 0 C1.39195915 4.17587745 -0.17676781 6.13474776 -2 10 C-2.99 10 -3.98 10 -5 10 C-3.49760034 6.38058265 -2.17854707 3.2678206 0 0 Z " fill="#313B63" transform="translate(331,215)"/>
<path d="M0 0 C0 3.93169105 -1.39419615 5.16427228 -4 8 C-4.66 8 -5.32 8 -6 8 C-6 8.66 -6 9.32 -6 10 C-6.66 9.67 -7.32 9.34 -8 9 C-7.23587913 7.87043002 -6.46340197 6.74651022 -5.6875 5.625 C-5.25824219 4.99851563 -4.82898438 4.37203125 -4.38671875 3.7265625 C-3 2 -3 2 0 0 Z " fill="#63BEDE" transform="translate(132,182)"/>
<path d="M0 0 C0.99 0.33 1.98 0.66 3 1 C3 1.99 3 2.98 3 4 C1.02 4.33 -0.96 4.66 -3 5 C-1.125 1.125 -1.125 1.125 0 0 Z " fill="#384369" transform="translate(216,271)"/>
<path d="M0 0 C1.32 0 2.64 0 4 0 C4 0.66 4 1.32 4 2 C6.475 2.99 6.475 2.99 9 4 C8.67 4.99 8.34 5.98 8 7 C7.01 6.34 6.02 5.68 5 5 C5 4.34 5 3.68 5 3 C2.525 2.01 2.525 2.01 0 1 C0 0.67 0 0.34 0 0 Z " fill="#CFF6FD" transform="translate(169,178)"/>
<path d="M0 0 C0.33 0.99 0.66 1.98 1 3 C-0.625 4.5625 -0.625 4.5625 -3 6 C-6.25 5.6875 -6.25 5.6875 -9 5 C-9 4.67 -9 4.34 -9 4 C-7.88625 3.71125 -6.7725 3.4225 -5.625 3.125 C-1.99708908 2.30758671 -1.99708908 2.30758671 0 0 Z " fill="#464E6E" transform="translate(235,296)"/>
</svg>
